<?xml version="1.0" standalone="no"?>
<!DOCTYPE svg PUBLIC "-//W3C//DTD SVG 20010904//EN"
 "http://www.w3.org/TR/2001/REC-SVG-20010904/DTD/svg10.dtd">
<svg version="1.0" xmlns="http://www.w3.org/2000/svg"
 width="512.000000pt" height="512.000000pt" viewBox="0 0 512.000000 512.000000"
 preserveAspectRatio="xMidYMid meet">

<g transform="translate(0.000000,512.000000) scale(0.100000,-0.100000)"
fill="#444746" stroke="none">
<path d="M765 3696 c-39 -18 -80 -62 -99 -108 -14 -33 -16 -155 -16 -1030 0
-945 1 -995 19 -1033 22 -47 64 -89 104 -104 20 -8 571 -11 1794 -11 l1766 0
43 25 c23 14 53 42 66 62 l23 38 3 1000 c2 703 0 1011 -8 1038 -14 47 -65 106
-107 123 -48 20 -3543 20 -3588 0z m3564 -132 c21 -27 21 -30 21 -1004 0 -974
0 -977 -21 -1004 l-20 -26 -1749 0 -1749 0 -20 26 c-21 27 -21 30 -21 1004 0
974 0 977 21 1004 l20 26 1749 0 1749 0 20 -26z"/>
<path d="M941 3424 c-37 -31 -51 -77 -50 -169 0 -92 16 -134 59 -163 33 -22
42 -23 162 -20 l128 3 32 33 c33 32 33 33 36 141 6 180 -16 201 -212 201 -119
0 -126 -1 -155 -26z m249 -164 l0 -71 -87 3 -88 3 -3 68 -3 67 91 0 90 0 0
-70z"/>
<path d="M1434 3431 c-46 -28 -56 -64 -52 -185 3 -104 3 -106 36 -138 l32 -33
128 -3 c120 -3 129 -2 162 20 43 29 59 71 59 163 1 92 -13 138 -50 169 -29 25
-36 26 -157 26 -107 0 -132 -3 -158 -19z m244 -168 l-3 -68 -87 -3 -88 -3 0
71 0 70 90 0 91 0 -3 -67z"/>
<path d="M1904 3416 l-34 -34 0 -111 c0 -179 22 -201 206 -201 177 0 204 25
204 190 0 108 -11 146 -52 174 -18 13 -51 16 -156 16 l-134 0 -34 -34z m256
-156 l0 -70 -85 0 -85 0 0 70 0 70 85 0 85 0 0 -70z"/>
<path d="M2408 3432 c-43 -26 -58 -69 -58 -166 0 -103 16 -148 62 -176 28 -17
50 -20 148 -20 125 0 150 8 184 53 17 23 22 46 24 127 4 112 -11 161 -59 185
-43 23 -264 20 -301 -3z m242 -172 l0 -70 -90 0 -90 0 0 70 0 70 90 0 90 0 0
-70z"/>
<path d="M2903 3440 c-46 -19 -63 -66 -63 -178 0 -168 26 -192 204 -192 185 0
206 20 206 196 l0 116 -34 34 -34 34 -128 -1 c-71 0 -139 -4 -151 -9z m227
-180 l0 -70 -85 0 -85 0 0 70 0 70 85 0 85 0 0 -70z"/>
<path d="M3371 3424 c-37 -31 -51 -77 -50 -169 0 -92 16 -134 59 -163 33 -22
42 -23 162 -20 l128 3 32 33 c33 32 33 33 36 141 6 180 -16 201 -212 201 -119
0 -126 -1 -155 -26z m249 -164 l0 -71 -87 3 -88 3 -3 68 -3 67 91 0 90 0 0
-70z"/>
<path d="M3864 3431 c-46 -28 -56 -64 -52 -185 3 -104 3 -106 36 -138 l32 -33
128 -3 c120 -3 129 -2 162 20 43 29 59 71 59 163 1 92 -13 138 -50 169 -29 25
-36 26 -157 26 -107 0 -132 -3 -158 -19z m244 -168 l-3 -68 -87 -3 -88 -3 0
71 0 70 90 0 91 0 -3 -67z"/>
<path d="M941 2954 c-37 -31 -51 -77 -50 -169 0 -92 16 -134 59 -163 33 -22
42 -23 162 -20 l128 3 32 33 c33 32 33 33 36 141 6 180 -16 201 -212 201 -119
0 -126 -1 -155 -26z m249 -164 l0 -71 -87 3 -88 3 -3 68 -3 67 91 0 90 0 0
-70z"/>
<path d="M1434 2961 c-46 -28 -56 -64 -52 -185 3 -104 3 -106 36 -138 l32 -33
128 -3 c120 -3 129 -2 162 20 43 29 59 71 59 163 1 92 -13 138 -50 169 -29 25
-36 26 -157 26 -107 0 -132 -3 -158 -19z m244 -168 l-3 -68 -87 -3 -88 -3 0
71 0 70 90 0 91 0 -3 -67z"/>
<path d="M1904 2946 l-34 -34 0 -111 c0 -179 22 -201 206 -201 177 0 204 25
204 190 0 108 -11 146 -52 174 -18 13 -51 16 -156 16 l-134 0 -34 -34z m256
-156 l0 -70 -85 0 -85 0 0 70 0 70 85 0 85 0 0 -70z"/>
<path d="M2408 2962 c-43 -26 -58 -69 -58 -166 0 -103 16 -148 62 -176 28 -17
50 -20 148 -20 132 0 170 15 196 75 20 49 19 197 -2 241 -26 54 -56 64 -196
64 -98 0 -129 -4 -150 -18z m242 -172 l0 -70 -90 0 -90 0 0 70 0 70 90 0 90 0
0 -70z"/>
<path d="M2903 2970 c-46 -19 -63 -66 -63 -178 0 -168 26 -192 204 -192 184 0
206 22 206 201 l0 111 -34 34 -34 34 -128 -1 c-71 0 -139 -4 -151 -9z m227
-180 l0 -70 -85 0 -85 0 0 70 0 70 85 0 85 0 0 -70z"/>
<path d="M3371 2954 c-37 -31 -51 -77 -50 -169 0 -92 16 -134 59 -163 33 -22
42 -23 162 -20 l128 3 32 33 c33 32 33 33 36 141 6 180 -16 201 -212 201 -119
0 -126 -1 -155 -26z m249 -164 l0 -71 -87 3 -88 3 -3 68 -3 67 91 0 90 0 0
-70z"/>
<path d="M3864 2961 c-46 -28 -56 -64 -52 -185 3 -104 3 -106 36 -138 l32 -33
128 -3 c120 -3 129 -2 162 20 43 29 59 71 59 163 1 92 -13 138 -50 169 -29 25
-36 26 -157 26 -107 0 -132 -3 -158 -19z m244 -168 l-3 -68 -87 -3 -88 -3 0
71 0 70 90 0 91 0 -3 -67z"/>
<path d="M948 2495 c-43 -24 -61 -88 -56 -195 7 -143 38 -168 211 -169 173 -1
207 31 207 192 0 105 -12 143 -52 171 -31 22 -270 22 -310 1z m242 -175 l0
-71 -87 3 -88 3 -3 68 -3 67 91 0 90 0 0 -70z"/>
<path d="M1432 2494 c-40 -28 -52 -66 -52 -171 0 -160 35 -193 202 -193 174 0
209 27 216 164 5 96 -10 159 -45 192 -25 23 -32 24 -162 24 -108 0 -141 -3
-159 -16z m246 -171 l-3 -68 -87 -3 -88 -3 0 71 0 70 90 0 91 0 -3 -67z"/>
<path d="M1904 2476 l-34 -34 0 -111 c0 -174 17 -193 179 -199 123 -5 169 6
206 50 26 31 27 34 23 151 l-3 119 -33 29 -32 29 -136 0 -136 0 -34 -34z m256
-156 l0 -70 -85 0 -85 0 0 70 0 70 85 0 85 0 0 -70z"/>
<path d="M2398 2487 c-15 -12 -32 -35 -38 -50 -15 -42 -12 -192 4 -232 25 -60
53 -70 196 -70 143 0 171 10 196 70 18 45 19 195 0 239 -25 59 -44 66 -196 66
-125 0 -137 -2 -162 -23z m250 -164 l-3 -68 -85 0 -85 0 -3 68 -3 67 91 0 91
0 -3 -67z"/>
<path d="M2878 2481 l-33 -29 -3 -120 -4 -121 35 -38 35 -38 130 0 c196 0 212
15 212 196 l0 111 -34 34 -34 34 -136 0 -136 0 -32 -29z m252 -161 l0 -70 -85
0 -85 0 0 70 0 70 85 0 85 0 0 -70z"/>
<path d="M3378 2495 c-43 -24 -61 -88 -56 -195 7 -143 38 -168 211 -169 173
-1 207 31 207 192 0 105 -12 143 -52 171 -31 22 -270 22 -310 1z m242 -175 l0
-71 -87 3 -88 3 -3 68 -3 67 91 0 90 0 0 -70z"/>
<path d="M3862 2494 c-40 -28 -52 -66 -52 -171 0 -161 34 -193 207 -192 170 1
204 26 211 161 5 99 -10 161 -45 194 -25 23 -32 24 -162 24 -108 0 -141 -3
-159 -16z m246 -171 l-3 -68 -87 -3 -88 -3 0 71 0 70 90 0 91 0 -3 -67z"/>
<path d="M963 2036 c-51 -23 -66 -57 -71 -158 -3 -68 0 -99 13 -134 26 -69 43
-74 253 -74 163 0 182 2 204 20 41 32 50 68 46 184 -3 104 -3 106 -36 138
l-32 33 -173 3 c-132 1 -179 -1 -204 -12z m327 -176 l0 -70 -140 0 -140 0 0
63 c0 35 3 67 7 70 3 4 66 7 140 7 l133 0 0 -70z"/>
<path d="M1570 2033 c-57 -29 -71 -70 -68 -191 l3 -104 37 -34 38 -34 975 0
c1071 0 1017 -3 1050 60 11 20 15 60 15 135 l0 105 -34 38 -34 37 -974 3
c-911 2 -975 1 -1008 -15z m1930 -173 l0 -70 -940 0 -940 0 0 70 0 70 940 0
940 0 0 -70z"/>
<path d="M3794 2043 c-12 -2 -34 -18 -50 -34 -28 -29 -29 -35 -32 -135 -4
-116 5 -152 46 -184 22 -18 41 -20 204 -20 201 0 226 6 249 62 9 21 14 70 14
133 0 169 -23 186 -257 184 -84 -1 -163 -4 -174 -6z m314 -185 l3 -68 -141 0
-140 0 0 70 0 71 138 -3 137 -3 3 -67z"/>
</g>
</svg>
